<svg xmlns="http://www.w3.org/2000/svg" viewBox="0 0 1237.93 2050.64"><defs><style>.cls-1{isolation:isolate;}.cls-2{fill:#d8dade;}.cls-12,.cls-2{mix-blend-mode:multiply;}.cls-3{fill:none;stroke:#d68552;stroke-miterlimit:10;stroke-width:63.82px;}.cls-4{fill:#fff;}.cls-5{fill:#fff;}.cls-6{fill:#27425f;}.cls-7{fill:#2d4a6a;}.cls-8{fill:#fac52f;}.cls-9{fill:#b89021;}.cls-10{fill:#f4d9a6;}.cls-11,.cls-12{fill:#c3ad84;}.cls-13{fill:#792027;}.cls-14{fill:#c1c1c4;}.cls-15{fill:#f9f9f9;}.cls-16{fill:#979597;}.cls-17{fill:#c94757;}.cls-18{fill:#b22e3c;}.cls-19{fill:#e35163;}.cls-20{fill:#d68552;}.cls-21{fill:#1b0900;}</style></defs><g class="cls-1"><g id="Layer_2" data-name="Layer 2"><g id="Capa_1" data-name="Capa 1"><ellipse class="cls-2" cx="618.97" cy="1989.37" rx="618.97" ry="61.27"/><path class="cls-3" d="M694.12,583.42c.65,1.33-87,141.44-107.83,396.34l-27,314"/><path class="cls-4" d="M559.31,763.78c5.31-210.06,167.86-274.55,167.86-274.55l32.9,152.25c-73.18,23.92-87.74,122.3-87.74,122.3Z"/><polygon class="cls-5" points="694.89 1937.76 594.74 1959.03 594.74 1982.95 764.91 1982.95 764.91 1937.76 694.89 1937.76"/><path class="cls-4" d="M1035.25,583.42c-10.2,166-61.61,572.95-61.61,572.95-119.81,0-333.26-297.41-333.26-464.82S728.59,500.1,770.24,485.91h217.1C1021,497.71,1035.25,534.28,1035.25,583.42Z"/><path class="cls-2" d="M747.88,485.91c-57.17,30.44-88.2,102.83-88.2,170.18h43c5.5-95.72,12.59-145.35,79.07-170.18Z"/><path class="cls-2" d="M953.45,485.91c-57.16,30.44-88.19,102.83-88.19,170.18h43c5.52-95.72,12.61-145.35,79.09-170.18Z"/><path class="cls-6" d="M640.38,1241.94,667,1567.65l27.93,366.65s42.54,30.12,70.46,0l31.91-218-12-148.61,49.2-325.71Z"/><path class="cls-2" d="M737.43,1245.41l-15.94,324.38,22.35,380.4c7.33-.91,21.51-12.43,21.51-12.43l31.91-218-12-148.6,49.2-325.71Z"/><polygon class="cls-6" points="1003.34 1245.41 640.38 1245.41 640.38 656.09 923.56 656.09 889.45 906.1 1003.34 1044.37 1003.34 1245.41"/><path class="cls-7" d="M659.68,793.08c6.42,0,11.63,91.73,11.63,204.87s-5.21,204.88-11.63,204.88S648.06,1111.09,648.06,998,653.27,793.08,659.68,793.08Z"/><polygon class="cls-5" points="947.27 1937.76 886.32 1937.76 861.07 1959.03 861.07 1982.95 973.64 1982.95 973.64 1959.03 947.27 1937.76"/><path class="cls-6" d="M1003.34,1245.41l-9.3,325-45.22,367.32s-33.23,28.56-61.16-1.57l-31.9-218,12-148.6-58.48-324.13Z"/><path class="cls-2" d="M917.36,1952.71c-25.71,0-46.55,3.36-46.55,7.49h93.07C963.88,1956.07,943.05,1952.71,917.36,1952.71Z"/><path class="cls-6" d="M728.59,485.91c-57.19,30.44-88.21,102.83-88.21,170.18h43C690,548.41,719.71,510.74,786.18,485.91Z"/><path class="cls-6" d="M929.72,485.91c-80.16,24.83-88.2,102.83-88.2,170.18h44.81c-2.64-100.15,27.73-140.33,101-170.18Z"/><path class="cls-2" d="M856.67,776.44c0,61.78-41.09,111.88-91.76,111.88s-91.76-50.1-91.76-111.88,41.09-47.67,91.76-47.67S856.67,714.67,856.67,776.44Z"/><path class="cls-2" d="M856.63,777.51c0-.35,0-.71,0-1.07,0-61.77-41.09-47.67-91.76-47.67s-91.76-14.1-91.76,47.67c0,.36.06.72.06,1.07Z"/><path class="cls-3" d="M1035.25,583.42c.66,1.33,88.38,159.63,67.55,414.53l-265-153.61"/><path class="cls-8" d="M810.36,748.87s62.5,21.94,42.73,59.21-40.36-9.94-40.36-9.94Z"/><path class="cls-9" d="M833.63,797.08c1.4-3.5,15.58-10.43,15.58-10.43S837,761.43,810.36,748.87C824.79,763.91,830.35,789.58,833.63,797.08Z"/><polygon class="cls-10" points="454.56 1881.94 175.39 1745.76 100.29 1829.44 191.09 1873.73 202.23 1867.55 203.31 1879.69 319.7 1936.47 319.7 1936.47 337.96 1933.75 332.87 1942.88 434.82 1992.63 454.56 1881.94"/><polygon class="cls-11" points="183.46 1749.68 108.35 1833.38 113.79 1836.03 188.89 1752.33 183.46 1749.68"/><polygon class="cls-11" points="196.98 1756.29 121.89 1839.97 127.31 1842.62 202.4 1758.94 196.98 1756.29"/><polygon class="cls-11" points="210.52 1762.88 135.42 1846.57 140.84 1849.22 215.94 1765.53 210.52 1762.88"/><polygon class="cls-11" points="224.04 1769.49 148.95 1853.17 154.39 1855.83 229.47 1772.13 224.04 1769.49"/><polygon class="cls-11" points="237.57 1776.09 162.49 1859.77 167.92 1862.42 243 1778.74 237.57 1776.09"/><polygon class="cls-11" points="251.1 1782.69 176.02 1866.37 181.44 1869.02 256.55 1785.34 251.1 1782.69"/><polygon class="cls-11" points="264.64 1789.28 189.55 1872.99 191.09 1873.73 202.23 1867.55 270.08 1791.94 264.64 1789.28"/><polygon class="cls-11" points="278.17 1795.88 203.07 1879.59 208.51 1882.23 283.61 1798.53 278.17 1795.88"/><polygon class="cls-11" points="444.79 1877.16 425.06 1987.87 419.63 1985.21 439.35 1874.53 444.79 1877.16"/><polygon class="cls-11" points="431.26 1870.57 411.54 1981.25 406.09 1978.62 425.83 1867.92 431.26 1870.57"/><polygon class="cls-11" points="417.73 1863.96 398 1974.66 392.57 1972.01 412.3 1861.32 417.73 1863.96"/><polygon class="cls-11" points="404.19 1857.37 384.47 1968.05 379.04 1965.42 398.77 1854.71 404.19 1857.37"/><polygon class="cls-11" points="390.66 1850.76 370.93 1961.46 365.5 1958.82 385.23 1848.12 390.66 1850.76"/><polygon class="cls-11" points="377.12 1844.16 357.4 1954.85 351.97 1952.21 371.7 1841.52 377.12 1844.16"/><polygon class="cls-11" points="363.61 1837.56 343.87 1948.24 338.86 1945.8 358.16 1834.91 363.61 1837.56"/><polygon class="cls-11" points="336.33 1824.27 315.42 1934.37 310.41 1931.92 330.89 1821.62 336.33 1824.27"/><polygon class="cls-11" points="329.69 1821.04 303.78 1928.69 298.77 1926.25 324.25 1818.37 329.69 1821.04"/><polygon class="cls-11" points="288.8 1801.09 214.9 1885.35 219.91 1887.8 294.25 1803.73 288.8 1801.09"/><polygon class="cls-11" points="299.46 1806.27 230.57 1892.99 235.59 1895.44 304.9 1808.94 299.46 1806.27"/><polygon class="cls-11" points="307.02 1809.97 249.09 1902.01 254.1 1904.46 312.46 1812.63 307.02 1809.97"/><polygon class="cls-11" points="323.69 1818.08 286.82 1920.43 281.81 1917.98 318.26 1815.44 323.69 1818.08"/><polygon class="cls-11" points="312.93 1812.84 265.06 1909.8 270.07 1912.25 318.36 1815.48 312.93 1812.84"/><polygon class="cls-11" points="350.07 1830.97 331.59 1934.71 325.51 1935.62 344.63 1828.31 350.07 1830.97"/><path class="cls-12" d="M285.61,1820.12c174.42,88.34,149.21,172.51,149.21,172.51l19.74-110.69L175.39,1745.76l-28.55,31.8C187.59,1773.26,232.53,1794.24,285.61,1820.12Z"/><path class="cls-13" d="M877.64,660.05A18.21,18.21,0,1,0,886,684.38,18.21,18.21,0,0,0,877.64,660.05Zm-13,26.64a11.44,11.44,0,1,1,15.29-5.25A11.43,11.43,0,0,1,864.64,686.69Z"/><polygon class="cls-14" points="357.59 1759.88 331.25 1747.02 851.28 680.66 877.63 693.5 357.59 1759.88"/><polygon class="cls-15" points="357.59 1759.88 349.87 1756.1 869.88 689.73 877.63 693.5 357.59 1759.88"/><polygon class="cls-16" points="339.35 1750.97 331.25 1747.02 851.28 680.66 859.38 684.59 339.35 1750.97"/><polygon class="cls-17" points="167.51 1754.12 176.35 1736.01 230.1 1739.79 425.56 1835.13 461.64 1875.17 452.8 1893.29 167.51 1754.12"/><polygon class="cls-18" points="167.51 1754.12 172.32 1744.26 457.61 1883.43 452.8 1893.29 167.51 1754.12"/><path class="cls-19" d="M420.44,1835.12c-1.47,3-24.19,2.86-99.78-34s-87.9-56.25-86.42-59.29,15,7.62,90.58,44.49S421.93,1832.07,420.44,1835.12Z"/><polygon class="cls-19" points="363.79 1823.64 277.18 1781.4 290.75 1753.56 377.38 1795.81 363.79 1823.64"/><rect class="cls-17" x="315.78" y="1746.81" width="16.76" height="96.36" transform="translate(-1431.26 1299.44) rotate(-64)"/><path class="cls-18" d="M359,1786.83l-49.84-24.32a11.21,11.21,0,0,0-14.95,5.16l69.95,34.11A11.18,11.18,0,0,0,359,1786.83Z"/><rect class="cls-18" x="326.94" y="1739.65" width="25.37" height="47.26" transform="translate(-1394.06 1295.51) rotate(-64)"/><polygon class="cls-18" points="877.61 707.62 840.18 689.36 845.75 677.97 883.16 696.21 877.61 707.62"/><polygon class="cls-8" points="890.43 930.29 795.64 870.58 833.37 795.13 939.65 831.89 890.43 930.29"/><path class="cls-8" d="M833.37,795.13s6.1-36.49-32.83-55-81.46,68.7-76.82,87.38,22.74,46.18,71.92,43.1S833.37,795.13,833.37,795.13Z"/><path class="cls-4" d="M1162.88,763.78C1157.57,553.72,995,489.23,995,489.23L962.13,641.48c73.16,23.92,87.76,122.3,87.76,122.3Z"/><path class="cls-7" d="M746.75,485.91c6.41,0-74,45.44-73.6,122.32l-12.8,142.69c-13.53.07-11.6,11.47-12.29-136.1C647.7,537.93,740.31,486,746.75,485.91Z"/><path class="cls-7" d="M948.82,485.91c6.44,0-73.94,45.44-73.57,122.32L862.43,707c-13.52.06-12.27-29.61-12.27-92.16C850.16,537.93,942.41,486,948.82,485.91Z"/><path class="cls-20" d="M904.23,489.23c-29.88,24.43-119.33,91.54-136.45,70.6s-9.46-46.17,20.42-70.6Z"/><path class="cls-20" d="M734.17,295.14c0,21.41-14.46,38.78-32.32,38.78s-32.33-17.37-32.33-38.78,14.47-38.78,32.33-38.78S734.17,273.72,734.17,295.14Z"/><path class="cls-20" d="M1019.66,295.14c0,21.41-14.47,38.78-32.32,38.78S955,316.55,955,295.14s14.46-38.78,32.32-38.78S1019.66,273.72,1019.66,295.14Z"/><path class="cls-20" d="M872.2,506l-68.9-4.51h-.08c.17-4.84.1-45.81,0-81.88l69.14-.29C872.63,500.53,872.32,504.35,872.2,506Z"/><path class="cls-2" d="M861.75,481.94s-61.83,15.29-58.57-62.35l69.14-.29S875.7,481.94,861.75,481.94Z"/><path class="cls-20" d="M1002.06,216.42c0,104.69-71.87,246.23-160.54,246.23S681,321.11,681,216.42s71.88-132.9,160.53-132.9S1002.06,111.72,1002.06,216.42Z"/><path class="cls-21" d="M955.47,192.2c13.13,47.1,37.67,69.35,17.64,151.62C973.39,347,1000,282.61,1007,192.2Z"/><path class="cls-21" d="M710,343.94c-.55,6-69.6-172.7-6.89-276.26C713.29,100,733.45,100,733.45,100S768.16-21.81,915.58,3.45c-25.43,21.27,0,39.88,0,39.88S954.76-4.61,1074,67.18c0,0,12.88,89.49-70.89,134.53S856.91,190.91,823,169.63c0,0-78.18-4.61-109.71,68.7C702.77,262.76,709.54,300.75,710,343.94Z"/><path class="cls-5" d="M797.71,391.14c0,18.91,19.62,34.23,43.81,34.23s43.83-15.32,43.83-34.23Z"/><polygon class="cls-2" points="862.69 279.67 884.63 371.88 834.75 375.1 873.12 370.32 862.69 279.67"/><path class="cls-21" d="M859.7,245.66c.55-2.68,15.69-7.33,15.69-7.33l68.08,23.22S858.05,253.6,859.7,245.66Z"/><path class="cls-21" d="M818.85,245.66c-.56-2.68-15.71-7.33-15.71-7.33l-68.07,23.22S820.5,253.6,818.85,245.66Z"/><path class="cls-21" d="M901.56,297.58c0,13.52-3.78,24.48-8.46,24.48s-8.47-11-8.47-24.48,3.8-24.5,8.47-24.5S901.56,284.05,901.56,297.58Z"/><path class="cls-21" d="M798.69,297.58c0,13.52-3.8,24.48-8.47,24.48s-8.47-11-8.47-24.48,3.8-24.5,8.47-24.5S798.69,284.05,798.69,297.58Z"/><path class="cls-8" d="M618.72,1280.46s18.06-35.89-23.91-40.11-2.06,30.31-2.06,30.31h0s3.92,25.92,16,27.52C613.8,1298.86,618.72,1280.46,618.72,1280.46Z"/><polygon class="cls-8" points="513.8 1141.49 510.94 1253.51 594.63 1263.94 622.98 1155.11 513.8 1141.49"/><path class="cls-8" d="M594.63,1263.94s.68,29.81-13.83,72.07c-5.21,23.84-56.14,33.39-69.1,19.17s-30.59-62.47-.76-101.67S594.63,1263.94,594.63,1263.94Z"/></g></g></g></svg>