<svg xmlns="http://www.w3.org/2000/svg" viewBox="0 0 158.27 166.2"><defs><style>.cls-1{isolation:isolate;}.cls-2{fill:#d8dade;}.cls-3{fill:#27425f;}.cls-4{fill:#252823;}.cls-5{fill:#7e7f7c;}.cls-6{fill:#00657e;}.cls-7{fill:#044565;}.cls-8{fill:#1f5976;}.cls-9{fill:#fcc7aa;}.cls-10{fill:#b8960b;}.cls-11{fill:#863300;}.cls-12{fill:#274500;}.cls-13{fill:#1682c8;}.cls-14{fill:#4da4dc;}.cls-15{fill:#7ac1ff;}.cls-16{fill:#8d4c00;}.cls-17{fill:#5b4538;}.cls-18{fill:#d3ba9d;mix-blend-mode:multiply;}.cls-19{fill:#742e00;}.cls-20{fill:#fed1bb;}</style></defs><g class="cls-1"><g id="Layer_2" data-name="Layer 2"><g id="Layer_1-2" data-name="Layer 1"><path class="cls-2" d="M111,135.16c-1.63,5.93,7.6,13.62,20.6,17.18S156.46,154,158.09,148s-7.61-13.63-20.61-17.18S112.63,129.22,111,135.16Z"/><path class="cls-2" d="M69.24,115.82s-14.11.52-15.53.78c-6.28,1.16-16,5.85-16,5.85L53,134.22l21.7-1.4Z"/><polygon class="cls-2" points="41.91 142.78 18.83 144.56 0 149.02 15.35 158.14 49.73 159.62 43.48 155.75 25.05 152.99 22.34 151.61 32.22 150.09 39.19 151.19 61.62 151.95 55.36 148.08 48.2 147.24 41.91 142.78"/><path class="cls-3" d="M102.38,145.76a4.12,4.12,0,0,1,1.11,1.13c.24.42.34.9.58,1.32a4,4,0,0,0,1.16,1.17,28,28,0,0,0,6.35,3.62,9.3,9.3,0,0,1,3.84,2.2,5.49,5.49,0,0,1,1.15,2.89,4,4,0,0,1-.3,2.38c-.94,1.75-3.4,1.85-5.33,1.4s-4-1.2-5.8-.37c-1.41.66-2.24,2.12-3.44,3.1a7.87,7.87,0,0,1-4.8,1.6,11.89,11.89,0,0,1-4-.56c-4.91-1.58-8.38-6.17-13.26-7.81-2.87-1-6-.82-9-1.26-1.38-.21-3-.82-3.2-2.21a2.72,2.72,0,0,1,.95-2.17c2-2,5-2,6.91-3.91s3.1-4.41,5.52-5.43a11.47,11.47,0,0,1,5-.4,13.76,13.76,0,0,0,3.9-.23,7.54,7.54,0,0,1,2.88-.61C95.86,141.88,99.87,143.86,102.38,145.76Z"/><path class="cls-4" d="M149.52,132.68a25.4,25.4,0,0,1,1.55,3.73c.67,2.08,2.75,6.16,1.87,8.06s-5.07,2.78-5.88,1.79-4.57-5.28-5-6-.93-4-.6-4.23a23.15,23.15,0,0,0,1.66-3.3Z"/><path class="cls-4" d="M132.25,136.52s.26,6.93.51,7.63-.51,4.47-4,3.91-5.07-2.92-8-4.65-4.4-3.59-4.33-4.22-.07-3.34,1.51-4.12,3.7-1.12,4.26-.7,5.14,2.22,5.14,2.22Z"/><path class="cls-5" d="M152.94,142.75c-.88,1.9-5.07,2.78-5.88,1.8s-4.57-5.28-5-6.05a11.06,11.06,0,0,1-.6-2.53h0c-.33.19.21,3.46.6,4.23s4.15,5.07,5,6,5,.11,5.88-1.79a3.72,3.72,0,0,0,.12-2.08A1.9,1.9,0,0,1,152.94,142.75Z"/><path class="cls-5" d="M132.68,143.68a3.31,3.31,0,0,1-3.88,2.66c-3.45-.56-5.07-2.92-8-4.64-2.5-1.46-3.91-3-4.24-3.84-.06.59-.06,1.1-.09,1.33-.07.63,1.37,2.5,4.33,4.22s4.57,4.08,8,4.65,4.22-3.21,4-3.91C132.74,144.07,132.71,143.9,132.68,143.68Z"/><path class="cls-6" d="M150.22,133.84s-1.79,2.39-4.23,2.12a12.82,12.82,0,0,1-3.86-1s-4.08-13.94-4.64-15.34c-.4-1-2.34-5.13-3.53-8.38a14.38,14.38,0,0,1-1-3.44c-.09-1.4-.21-9.82-.22-16.87,0-5,0-9.27.22-9.94a1.24,1.24,0,0,1,.42-.52,23.6,23.6,0,0,1,5.42-3q1.78-.86,3.6-1.65c1-.44,2.06-1.17,3.1-.44a3.74,3.74,0,0,1,1,1.11c.58.89,1.06,1.84,1.66,2.73a5.08,5.08,0,0,1,.91,2.49,21.73,21.73,0,0,1,.14,6.59,41.59,41.59,0,0,1-1.8,7.54c-.66,2-1.81,3.72-2.36,5.77-.24.92-.95,3.09-.46,4,0,.07,3.64,6.75,4.35,10.67S150.22,133.84,150.22,133.84Z"/><path class="cls-7" d="M140.42,122.11c-.4-1-2.34-5.14-3.54-8.38-1-2.78-1.46-5.18-.36-8s3-5.48,4-8.48c.86-2.69.08-4.4-.87-6.84-.7-1.77-2.75-1.66-4.09-2.87-1.19-1.09-.31-3.21.57-4.4s3.2-2,4.55-2.7c1-.49,2-1,3-1.42A4.6,4.6,0,0,0,146,77.59a.7.7,0,0,0,0-.43,2.23,2.23,0,0,0-2.79-1.71,38.85,38.85,0,0,0-3.84,1.73,25.81,25.81,0,0,0-6,3.3A1.24,1.24,0,0,0,133,81c-.17.67-.23,5-.22,9.94,0,7,.13,15.47.22,16.87a14.38,14.38,0,0,0,1,3.44c1.19,3.25,3.13,7.4,3.53,8.38.56,1.4,4.64,15.34,4.64,15.34a11.69,11.69,0,0,0,2.42.75C143.44,131.94,140.85,123.2,140.42,122.11Z"/><path class="cls-6" d="M141.81,87a23.4,23.4,0,0,1-.94,6.7c-2.11,7.4-6.55,7.4-6.62,11.75,0,1.49-.14,3.62-.29,5.77-.29,4.14-.69,8.38-.69,8.38a23.59,23.59,0,0,1,.57,9.07c-.64,5.35-1.63,10-1.63,10s-2.77,1.47-4.55,1.06a1.93,1.93,0,0,1-.58-.22,9.71,9.71,0,0,1-2.25-1.62s-2.32-14.07-2.89-16.75-5.84-15.26-6-21.25-1.62-16,0-19.14c1-2,10.52-1.17,17.52-.3,4.18.53,7.46,1.08,7.46,1.08A15.27,15.27,0,0,1,141.81,87Z"/><path class="cls-8" d="M148.64,80c0,.42-.29.7-.68,1.12a57,57,0,0,1-5.63,5.47,4.92,4.92,0,0,1-.52.41,25.58,25.58,0,0,1-6.16,3.09,19.29,19.29,0,0,1-2.88.82,39.45,39.45,0,0,1-4.31.58c-1.53.14-3.06.16-4.58.25a13.16,13.16,0,0,1-4,.06c-.12,5.67,1.13,11.46,1.7,17.1a19.87,19.87,0,0,0,1.71,5.35,46.12,46.12,0,0,1,2.85,11q.9,7.2,1.53,14.44a1.93,1.93,0,0,1-.58-.22,9.71,9.71,0,0,1-2.25-1.62s-2.32-14.07-2.89-16.75-5.84-15.26-6-21.25-1.62-16,0-19.14c1-2,10.52-1.17,17.52-.3,1.52-1.32,6.86-3.75,10.55-5.35a2.37,2.37,0,0,0,.36.09c.55.09,1.48-.23,1.87.27.14.18.22.39.35.57a5.32,5.32,0,0,0,.47.48,4.05,4.05,0,0,1,.64,1,19.68,19.68,0,0,1,.91,2A1.52,1.52,0,0,1,148.64,80Z"/><path class="cls-9" d="M99.38,13.4a11.73,11.73,0,0,0,2,5.91c1.92,2.76,3.51,3,3.61,3.37s-.38,3.05,0,3.38,2.11,0,2.11,0a21,21,0,0,0,1.64,2.07,3.11,3.11,0,0,1,.61.61,30.85,30.85,0,0,0,3.28,2.72c1,.61,3.76-1.18,4.18-1.27a1.73,1.73,0,0,0,.75-.42L119.08,32s8.3-2.82,10.65-4.79a15.6,15.6,0,0,0,3.42-3.94s-2.25,0-5.25-2.36-3.1-3.55-3.1-3.55-17.31-7.5-18.48-6.92S99.38,13.4,99.38,13.4Z"/><path class="cls-10" d="M119.08,32l1.55-.55c.94-.34,1.81-.44,2.44-1.27a6.53,6.53,0,0,1,1.08-1,18.51,18.51,0,0,0,1.39-1.27,12,12,0,0,0,2.29-3.4,4.54,4.54,0,0,0,.43-3.36l-.81.85c-.29.31-.58.62-.88.92a28.28,28.28,0,0,1-3.85,3.23c-.67.47-1.37.92-2.09,1.33a3.45,3.45,0,0,1-2.13.53,2.72,2.72,0,0,0-.9.06,2.87,2.87,0,0,0-1.26,1.16c-.47.6-.92,1.22-1.38,1.84.85-.38,1.61-.83,1.82-.88a1.73,1.73,0,0,0,.75-.42Z"/><path class="cls-11" d="M124.8,17.39c.14.37-1.68,2-2.44,2.86a1.57,1.57,0,0,1-1.55.65s-5.21-3.23-6.42-3.37-3.9-.24-4.23.65-1.35,2.21-1.21,2.48-1.51.27-1.51.27a11.57,11.57,0,0,0-3.13-.82c-.66.14-2.41-1.18-2.41-1.18s-.6-2.81-1.16-3.14a2.55,2.55,0,0,0-1.39-.19c-.51.06-.94.3-.82.8.23,1,2.71,4.31,2.86,4.52-.28-.18-4.71-3-5.29-4.57s-1-4.12,0-5.11,2.48-7,5.76-8.49,4.6-3,7.09-2.35c0,0,2.67-1.27,6.23.71A12.71,12.71,0,0,1,117.83,3a18.67,18.67,0,0,1,3.4,4.57c1.09,1.78,2,7.18,2.58,8.21S124.66,17,124.8,17.39Z"/><path class="cls-3" d="M129.86,21.75s3.62.84.84,2.7a57.24,57.24,0,0,1-10.38,4.86c-.6,0-3.22.76-3.22.76s1.22,2.3,1.08,2.79-6.8,7.11-7.08,7.85l-.28.74s5.12,14.14,5.44,21.25-1.64,23.78-1.64,23.78,4.08,4.58,15.83,3.38a24.88,24.88,0,0,0,12-4.73c2.43-1.76,5.45-3.9,5.25-7.18-.29-4.9-1-9.75-1.17-14.69-.15-5.32-.14-10.65-.12-16,0-4,1.42-8.14,1-12-.33-3.2-.17-7-1.44-10-1.18-2.81-3.57-5.87-6.85-5.48a24.5,24.5,0,0,0-6,1.47C132.92,21.36,130.42,20.37,129.86,21.75Z"/><path class="cls-3" d="M128.45,24.89c-1,.9-2.25,1.43-3.31,2.23a19.78,19.78,0,0,1-4,1.92,21.79,21.79,0,0,1-4,1s1.22,2.3,1.08,2.79-6.8,7.11-7.08,7.85l-.28.74s5.12,14.14,5.44,21.25-1.64,23.78-1.64,23.78,1.76,2,6.24,3a55.52,55.52,0,0,1,.68-15.13c.78-3.85,1.72-7.45,1.86-11.38.07-1.8.75-3.64.84-5.5a22.48,22.48,0,0,0-.47-5.78,1.28,1.28,0,0,0-.14-.43,1.38,1.38,0,0,0-.61-.48l-2.79-1.5-.54-.29c-.54-.28-2.32-1.63-2.73-1a13.31,13.31,0,0,1-2.82-4.5,2.61,2.61,0,0,1,0-1.54,15.42,15.42,0,0,1,2.73-4.08c.94-1.22,2.07-2.29,3-3.51a17.88,17.88,0,0,1,1.4-2.23,20.74,20.74,0,0,1,2.54-1.69q2.56-1.72,5.11-3.47l-.26,0a11.44,11.44,0,0,1,2.54-2.38c1.12-.56,2.25-1.09,3.39-1.6,2.29-1,4.61-1.95,6.93-2.93a4.63,4.63,0,0,0-2.33-.31,24.5,24.5,0,0,0-6,1.47c-.36.16-1.27-.22-1.67-.24-1,0-1.45.5-2.23,1,.47-.28.69.6.61.89a3.56,3.56,0,0,1-.79,1.42A7,7,0,0,1,128.45,24.89Z"/><path class="cls-9" d="M106.76,70.35s-1.47-.12-1.57.4a3.14,3.14,0,0,1-.7,1.47c-.21.12-.08,1.81-.17,2a7.21,7.21,0,0,0-.42,1.69c0,.23,1.6,3.11,1.69,3.3a13.69,13.69,0,0,0,3.4-4C109.27,74.15,106.76,70.35,106.76,70.35Z"/><polygon class="cls-12" points="108.38 79.22 95.9 140.57 94.22 140.57 107.07 76.12 108.38 79.22"/><path class="cls-10" d="M106.46,54.26s.77-9.86,4.36-12.81,8.45,1,10.77,3.87A13.57,13.57,0,0,1,124,52c.35,2.47-.12,4.4-.53,6.81-.91,5.4-2.9,10.54-4.87,15.62L117,78.73a31.81,31.81,0,0,1-1.59,3.64c-.6,1.11-1,2.15-2.32,1.95-1.62-.23-4.2-.53-5.46-1.71-1-1-2.88-2.53-2.88-2.88s-.59-3.75-.31-4.18,1.55-2,1.55-2Z"/><path class="cls-13" d="M92.7,140.76s3.72.69,4.33,1.5.86,1,2.9,3.11,2,3.77,2,3.77.37,1-1.14,1.77-4.27,3.46-7.64,2.1-7.63-1.28-8.5-2.84-5.72-3.15-2.37-5.78,2.09-3.69,2.09-3.69l5.83-.85Z"/><path class="cls-14" d="M93.24,140.82s-1.66-.06-2-1a2.46,2.46,0,0,0-2.33-1.12c-.22.21-1.49,1.1-1.49,1.1l-3,.08s-1.83-.36-2,.75-.25,2.08-.25,2.08l2-1.59s1,.42,1.48.6a10.49,10.49,0,0,0,1.56.45c.33.06,1.81-1.18,2.07-1.35s.85-.92,1.11-.65S92.56,142,92.56,142Z"/><path class="cls-14" d="M93.7,139.48s-1,.08-.61.61,1.13,1.32,1.89,1.09,2.14-.22,1.83-.77l-.31-.55s.25.67-1,.35A5.69,5.69,0,0,1,93.7,139.48Z"/><path class="cls-14" d="M93.11,140.83,92.83,142s.12.43,1.21.76a2.81,2.81,0,0,0,2-.22l.79-1.85-3.77-.56Z"/><path class="cls-14" d="M97,142.26A9,9,0,0,1,98.67,145c.18,1,3.71,2.66,3.91,2.85a3.25,3.25,0,0,0,1.79.52c.85,0,2.46,1.26,2.29,1.6s1.5.65,1.5.65l-1.26,1.27a7.19,7.19,0,0,1-2-1.28c-1.09-.95-2.77-1.48-3.32-1.28s-2.34-1.45-2.89-1.93a10.55,10.55,0,0,1-1.38-2.36l-2.1-2Z"/><path class="cls-14" d="M94,142.72s.77,3.24.42,4a24.92,24.92,0,0,0-1.38,2.91c-.21.8-1,2.23.41,3.14a21.39,21.39,0,0,1,3,2c.76.7.23,2.17.23,2.17s-1.91-.58-1.93-.36.12-1.92.12-1.92-3.11-.6-3.66-1.81-1.24-4.33-.53-5a35.27,35.27,0,0,0,2.6-4.82Z"/><path class="cls-14" d="M92.19,141.14a44.11,44.11,0,0,1-4.58,1c-.22-.13-.72-2.13-2.64-.23s-4.44,2.19-4.9,2.48a13.67,13.67,0,0,0-1.73,2.46l-1.61.17.14,1.33,2.52-.26s1.09-.26,2.22-.66-.73-1.84-.23-2.17a11.17,11.17,0,0,1,4.1-1.2c1.89-.19,4,.08,4.79-.25A19.52,19.52,0,0,0,92.83,142Z"/><path class="cls-14" d="M96.07,142.5s1.69,4.64,1.94,5a5.68,5.68,0,0,0,1.89,1.85,16.65,16.65,0,0,1,2.24,1.71s1.49.06,1.4,1.2a7,7,0,0,0,.26,2.31l.56.86-1.26.13a4.15,4.15,0,0,0-.71-2.12c-.65-.78-2.63-.78-2.63-.78A4.79,4.79,0,0,1,98,151.22c-.35-.74-1.36-3.57-1.36-3.57s-.6-2.75-1.4-2.86-.24-2.31-.24-2.31Z"/><path class="cls-14" d="M93.29,143c-.64,1.33-3.32,3.5-3.1,4.52s.22,2.56.43,3.38-1,1.84-1,1.84-1.7-.39-1.8.19-2.65,2.61-2.65,2.61l-1.62-.61,2.08-2.06s.75-1.28,1.45-1.42a4,4,0,0,0,1.49-.9s0-2.65-.31-2.9.42-1.82.42-1.82l1.17-1.32,2.44-2.13Z"/><path class="cls-14" d="M94.11,143.4S92,147.6,92,149.09s-.51,3.52.46,4.34-.1,3.26-.1,3.26l-2.1-.62a11,11,0,0,1,.62-2.48c.39-.74-.23-3.23-.38-3.67a9,9,0,0,1,.9-3.1c.28-.5,1.26-3.95,1.26-3.95Z"/><path class="cls-14" d="M95.23,143s.69,3.95.79,4.68,2.57,4.64,2.76,5,1,1.38,1.32,2a9.6,9.6,0,0,0,1.8,1.65l-1.5,1.15s-2.12-1.33-1.92-1.49-.84-2-1.32-2.55a41.7,41.7,0,0,1-2.36-3.61c-.43-.7-1.51-6.9-1.51-6.9Z"/><path class="cls-14" d="M92.89,156.63s.28-2.67,1.11-3.56-.22-.91.13-2.52-.5-4.75-.5-4.75l.41-3.08s1.1-.16,1.19.31-.11,5.49.59,5.65.62,1.9.61,2.84-2,2.76-1.55,3.14-.76,2.55-.76,2.55Z"/><path class="cls-14" d="M92.5,143.26a3.88,3.88,0,0,1-2.5,2.43c-1.76.36-2.53.44-2.56.83s-.87,2.19-.86,2.66-1.87,2.72-2.07,2.85-3.29-.34-3.44-.11-1.64.18-1.64.18l-.73-.87a17.81,17.81,0,0,1,2.09-.61,6.3,6.3,0,0,1,2.07.17c.42.24,2.48-1,2.48-1l1.47-4.23,3.07-1.06,1.87-1.69.57-.44Z"/><path class="cls-14" d="M89.47,142.67s-4.19,1.46-4.63,2.32-.92,2.4-1.28,3-2.82,1-3.36,1a9.56,9.56,0,0,1-1.41-.31l-1.46.64,1.24.67a13.55,13.55,0,0,1,1.6.06,11.14,11.14,0,0,0,2.85-.53A13.35,13.35,0,0,0,85.15,148c.25-.31.21-1.25.35-1.68a7.19,7.19,0,0,1,1.27-1.46l2.45-.89,2.84-1.39-1.12-.42Z"/><path class="cls-14" d="M81.2,143.54s1.87-1.23,2.27-1.48.21-.88,2.17-.41,3.11-.79,3.3-.65a20.49,20.49,0,0,0,2.78.19l1.41.36-.77.46-2-.17s-2.93-.07-3.21.34a3.62,3.62,0,0,1-2,.94c-.28-.08-1.49-.2-1.49-.2l-3,1.64Z"/><polygon class="cls-15" points="39.06 119.62 37.71 120.46 44.1 142.42 45.45 141.58 46.33 137.79 53.29 141.44 61.62 151.95 62.97 151.11 52.96 127.32 39.06 119.62"/><polygon class="cls-16" points="51.61 130.56 38.37 139.41 44.1 142.42 44.98 138.63 51.94 142.28 55.36 148.08 61.62 151.95 52.42 130.1 51.61 130.56"/><polygon class="cls-15" points="37.71 120.46 36.36 121.3 32.22 150.09 33.57 149.25 36.73 141.18 43.69 144.83 49.73 159.62 51.08 158.78 51.61 130.56 37.71 120.46"/><polygon class="cls-15" points="36.36 121.3 26.49 147.08 32.22 150.09 35.38 142.02 42.34 145.67 43.48 155.75 49.73 159.62 50.26 129 36.36 121.3"/><polygon class="cls-13" points="39.06 119.62 36.36 121.3 50.26 129 52.96 127.32 39.06 119.62"/><path class="cls-17" d="M38.44,134.24l0-3-.91,2.49-1.13-.61-.33-5.18,1.17.63v3.29l1-2.75,1.07.58V133l1-2.76,1.12.61-1.82,4Z"/><path class="cls-17" d="M42.51,132.7l-.09.56,1.55.84-.19,1.16-1.55-.84-.09.57,1.75.95-.19,1.15-2.84-1.54.74-4.6,2.8,1.52-.19,1.15Z"/><path class="cls-17" d="M46.49,134.9l-.55,3.41-1.1-.6.55-3.4-.94-.51.2-1.2,3,1.61-.2,1.21Z"/><path class="cls-17" d="M35.73,134.66l-.09.58,1.07.58-.14.84-1.07-.58-.17,1.09-.8-.43.54-3.35L37,134.44l-.14.84Z"/><path class="cls-17" d="M38.64,138l-.14.92-1.8-1,.54-3.34L38,135l-.39,2.42Z"/><path class="cls-17" d="M41.5,138.69c-.17,1-.84,1.42-1.61,1a2.38,2.38,0,0,1-1-2.44c.16-1,.83-1.4,1.6-1A2.38,2.38,0,0,1,41.5,138.69Zm-1.83-1a1.06,1.06,0,0,0,.38,1.07c.28.15.55-.07.63-.53a1.05,1.05,0,0,0-.37-1.05C40,137.05,39.74,137.25,39.67,137.71Z"/><path class="cls-17" d="M44.24,140.18c-.16,1-.83,1.43-1.6,1a2.38,2.38,0,0,1-1-2.44c.16-1,.83-1.4,1.59-1A2.35,2.35,0,0,1,44.24,140.18Zm-1.83-1a1.08,1.08,0,0,0,.39,1.07c.28.15.55-.07.62-.53a1,1,0,0,0-.36-1.05C42.78,138.54,42.49,138.74,42.41,139.2Z"/><path class="cls-17" d="M45.43,141.7l-.3-.16-.14.87-.8-.43.54-3.35,1.17.63a1.62,1.62,0,0,1,.83,1.76c-.08.49-.27.78-.55.85l.3,1.35-.9-.49Zm.2-.8c.18.09.3,0,.34-.26a.49.49,0,0,0-.21-.54l-.37-.2-.12.8Z"/><path class="cls-3" d="M54.56,105.05l3.3,19.5,12.64,7.28.86.51a4,4,0,0,0,.92.37h0a5.15,5.15,0,0,0,1.89.13l.44,0,.45,0a19.58,19.58,0,0,0,7.42-2.31,8.33,8.33,0,0,0,4.08-4.54c.18-.61,1.64-16.07,1.64-16.07l-9.47-.53-6.87-.39Z"/><path class="cls-3" d="M71.91,112.83l.42,19.89a5.15,5.15,0,0,0,1.89.13l.44,0,.45,0a20.29,20.29,0,0,0,2.81-.51,17.8,17.8,0,0,0,4.61-1.8,11.7,11.7,0,0,0,1.85-1.3,7.07,7.07,0,0,0,2.23-3.24c.18-.61,1.64-16.07,1.64-16.07l-2.48-.14-7-.39-2.43,1.24Z"/><path class="cls-3" d="M76,105.64l.35,4.92,1.57,21.7a17.8,17.8,0,0,0,4.61-1.8,11.7,11.7,0,0,0,1.85-1.3l1.39-19.45.1-1.47Z"/><path class="cls-16" d="M87.62,114.88c.34-3.46.63-6.53.63-6.53l-9.47-.53-6.87-.39-6-1.34-11-.64.61,3.61,14.77,9.25,1.08.63a4.93,4.93,0,0,0,1.14.46,6.61,6.61,0,0,0,2.41.18l.55,0a5.32,5.32,0,0,0,.56-.06,24.11,24.11,0,0,0,9.22-2.87A14.72,14.72,0,0,0,87.62,114.88Z"/><path class="cls-15" d="M52.54,104.28v1.91l17.72,11.1,1.08.62a4.93,4.93,0,0,0,1.14.46,6.61,6.61,0,0,0,2.41.19l.55,0,.56-.07a24.29,24.29,0,0,0,9.22-2.86c2.6-1.51,4.42-3.46,5.07-5.65a17.32,17.32,0,0,0,0-3.45l-17.84-1Z"/><path class="cls-15" d="M52.54,104.28v2.78l18.8,10.85a4.93,4.93,0,0,0,1.14.46V105.44Z"/><path class="cls-15" d="M70.26,109.85v7.44l1.08.62a4.93,4.93,0,0,0,1.14.46,6.61,6.61,0,0,0,2.41.19l.55,0,.56-.07v-8.59Z"/><path class="cls-13" d="M70.15,94.12l19,11c.93.53,1.35,1.3,1.12,2h0C89,111.54,83,115,75.44,115.74l-.55.05a6.1,6.1,0,0,1-3.55-.65l-18.8-10.85Z"/><path class="cls-3" d="M88.23,106.77c-1.12,3.75-6.39,6.72-13.12,7.39l-.5,0-.56,0a4.58,4.58,0,0,1-2.24-.52l-2.35-1.37-13.89-8,14.69-8.49,17.31,10C87.76,106,88.35,106.34,88.23,106.77Z"/><polygon class="cls-15" points="70.27 95.85 70.27 112.83 55.56 104.34 70.27 95.85"/><path class="cls-3" d="M74.61,114.21a5.44,5.44,0,0,1-.57,0,4.55,4.55,0,0,1-2.24-.53l-8.27-4.77,6.74-3.9,12.38,7.15a23.34,23.34,0,0,1-7.53,2Z"/><path class="cls-10" d="M114.46,40.49c-1.39.13-2.49,0-3.64,1-3.59,2.95-4.36,12.81-4.36,12.81l-.52,19.34s-1.26,1.53-1.55,2a9.07,9.07,0,0,0,.14,2.81,6.89,6.89,0,0,0,2.79-.47c2.42-.8,1.45-2.89,1.26-4.74-.27-2.8-.37-5.62-.37-8.43a94.44,94.44,0,0,1,1.5-16.79C110.29,44.68,112.22,42.73,114.46,40.49Z"/><path class="cls-18" d="M88.23,106.77c-1.12,3.75-6.39,6.72-13.12,7.39l-.5,0-.56,0a4.58,4.58,0,0,1-2.24-.52l-2.35-1.37,6.52-4,11.59-2.5C87.76,106,88.35,106.34,88.23,106.77Z"/><path class="cls-19" d="M124.8,17.39c.14.37-1.68,2-2.44,2.86a1.57,1.57,0,0,1-1.55.65s-5.21-3.23-6.42-3.37-3.9-.24-4.23.65-1.35,2.21-1.21,2.48-1.51.27-1.51.27a11.57,11.57,0,0,0-3.13-.82c-.66.14-2.41-1.18-2.41-1.18s-.6-2.81-1.16-3.14a2.55,2.55,0,0,0-1.39-.19,2.67,2.67,0,0,1,.2-.72A1.29,1.29,0,0,1,101,14c.21.06.4.19.61.23a1.71,1.71,0,0,0,1.1-.27c2-1,4.06-2.11,5.39-3.92.23.62,1.14.7,1.71.35A6,6,0,0,0,111.1,9a1.87,1.87,0,0,1,1.71-.82c-.18.07.11.28.29.21.67-.26,1.15-.9,1.83-1.15a11.34,11.34,0,0,0,1.3-.36,2.4,2.4,0,0,0,1-1.42A11.65,11.65,0,0,0,117.83,3a18.67,18.67,0,0,1,3.4,4.57c1.09,1.78,2,7.18,2.58,8.21S124.66,17,124.8,17.39Z"/><path class="cls-20" d="M109.54,18.67s-.39-1.76,1.23-1.3,2.85.76,3.45,2.56a5.05,5.05,0,0,1,.32,3.14c-.14.46-1.23-.24-1.69-1s-1.06-1.8-1.41-1.83A10.5,10.5,0,0,1,109.54,18.67Z"/><path class="cls-10" d="M130.9,21.05a.28.28,0,0,1,0,.09,23,23,0,0,1-.71,2.55A7.42,7.42,0,0,1,129,26a12,12,0,0,1-1.93,1.83,26.12,26.12,0,0,1-5.1,3.29c-.57.28-1.15.52-1.72.8-1,.48-1.94,1.06-2.88,1.63a4.79,4.79,0,0,0-.06-1.85c-.19-.66-.66-1.22-.84-1.89,1.08-.58,2.19-1.12,3.31-1.62a41,41,0,0,0,3.78-1.82,17.32,17.32,0,0,0,2.62-2.15,7.13,7.13,0,0,0,1.49-1.66A2.46,2.46,0,0,0,128,21.5c0-.37-.12-.73-.14-1.12a5.58,5.58,0,0,0,1.4.26l1.25.11c.15,0,.33.05.38.19A.41.41,0,0,1,130.9,21.05Z"/></g></g></g></svg>