<svg xmlns="http://www.w3.org/2000/svg" viewBox="0 0 686.44 212.93"><defs><style>.cls-1{fill:#105486;}.cls-2{fill:#b8960b;}.cls-3{fill:#1d1d1b;}</style></defs><g id="Layer_2" data-name="Layer 2"><g id="Layer_1-2" data-name="Layer 1"><path class="cls-1" d="M341.23,1.9H319.5a2.6,2.6,0,0,0-2.6,2.6V45.55a2.61,2.61,0,0,1-2.6,2.62H268a2.6,2.6,0,0,1-2.6-2.62V4.5a2.62,2.62,0,0,0-2.62-2.6H241.23a2.6,2.6,0,0,0-2.6,2.6V122.91a2.59,2.59,0,0,0,2.6,2.6h21.54a2.61,2.61,0,0,0,2.62-2.6V72a2.59,2.59,0,0,1,2.6-2.6h46.48a2.59,2.59,0,0,1,2.6,2.6v50.9a2.61,2.61,0,0,0,2.62,2.6h21.54a2.59,2.59,0,0,0,2.6-2.6V4.5A2.6,2.6,0,0,0,341.23,1.9Z"/><path class="cls-1" d="M475,58.18H428a2.6,2.6,0,0,0-2.6,2.61v16a2.6,2.6,0,0,0,2.6,2.6h24a2.62,2.62,0,0,1,2.57,3.13,25.3,25.3,0,0,1-5.86,11.89q-10.37,11.24-26.58,11.23-15.29,0-25.49-10.36-11.82-11.94-11.83-31.95,0-18.13,8.56-29.18Q403,21.76,421.18,21.75q22.82,0,30.64,17.56a2.65,2.65,0,0,0,2.41,1.61h20.32a2.61,2.61,0,0,0,2.57-3.11A40.8,40.8,0,0,0,462,12.6Q446.29,0,421.18,0q-26.4,0-43.5,15.54Q358,33.33,358,63.88q0,25.89,15.12,43.51,17.3,20,46.05,20c15.63,0,24.57,5.24,33.61-5.28a2.62,2.62,0,0,1,3.53-.43L460.9,125a2.65,2.65,0,0,0,1.53.49H475a2.61,2.61,0,0,0,2.62-2.6V60.79A2.62,2.62,0,0,0,475,58.18Z"/><path class="cls-1" d="M602.46,120.2q-4.38-3-4.55-9.36Q597,82.54,595,77.52q-2.09-5.3-10-9.26a2.61,2.61,0,0,1-1.34-3A2.47,2.47,0,0,1,585,63.64Q601.92,55,601.92,35.4q0-15.54-9.84-25-8.72-8.47-25.29-8.46h-67.3a2.46,2.46,0,0,0-1.94.91,2.49,2.49,0,0,0-.66,1.69v118a2.62,2.62,0,0,0,3,2.59L521.42,122a2.6,2.6,0,0,0,2.23-2.57V79.1a2.61,2.61,0,0,1,2.6-2.62h28.17Q571,76.48,571,91.15v5c-.13,3.33-.18,6.16-.18,8.46,0,8.57,4.26,10.62,7,14.66a2.81,2.81,0,0,0,1.68,1.18l20.93,4.39a3.19,3.19,0,0,0,.54,0,2.61,2.61,0,0,0,2.6-2.6A2.48,2.48,0,0,0,602.46,120.2ZM556.05,55.25h-29.8a2.61,2.61,0,0,1-2.6-2.61V25.74a2.59,2.59,0,0,1,2-2.54,2.21,2.21,0,0,1,.57-.06h29.8c6.67,0,11.4,1.08,14.19,3.27,3.29,2.54,4.92,6.74,4.92,12.61q0,9.15-4.92,13.11a10.44,10.44,0,0,1-2.63,1.45Q563.47,55.26,556.05,55.25Z"/><path class="cls-2" d="M200,22.27,196.8,11l-3.15,11.28a13.13,13.13,0,0,1-8.2,9l-10.22,3.47,10.22,3.48a13.11,13.11,0,0,1,8.2,9l3.15,11.28L200,47.3a13.11,13.11,0,0,1,8.2-9l10.22-3.48-10.22-3.47A13.13,13.13,0,0,1,200,22.27Z"/><path class="cls-1" d="M152.85,41.34l-1.57-5.63-1.58,5.63a6.56,6.56,0,0,1-4.09,4.52L140.5,47.6l5.11,1.73a6.56,6.56,0,0,1,4.09,4.52l1.58,5.63,1.57-5.63a6.58,6.58,0,0,1,4.1-4.52l5.11-1.73L157,45.86A6.58,6.58,0,0,1,152.85,41.34Z"/><path class="cls-1" d="M182.14,69l-2-7.29-2,7.29a8.47,8.47,0,0,1-5.3,5.85l-6.62,2.25,6.62,2.25a8.51,8.51,0,0,1,5.3,5.85l2,7.3,2-7.3a8.53,8.53,0,0,1,5.31-5.85l6.62-2.25-6.62-2.25A8.49,8.49,0,0,1,182.14,69Z"/><path class="cls-1" d="M631.21,44.74l-1.58-5.64-1.58,5.64A6.51,6.51,0,0,1,624,49.25L618.85,51,624,52.73a6.51,6.51,0,0,1,4.09,4.51l1.58,5.64,1.58-5.64a6.51,6.51,0,0,1,4.09-4.51L640.41,51l-5.11-1.74A6.51,6.51,0,0,1,631.21,44.74Z"/><path class="cls-1" d="M660.5,72.42l-2-7.3-2.05,7.3a8.47,8.47,0,0,1-5.3,5.85l-6.62,2.25,6.62,2.25a8.45,8.45,0,0,1,5.3,5.85l2.05,7.29,2-7.29a8.45,8.45,0,0,1,5.3-5.85l6.62-2.25-6.62-2.25A8.47,8.47,0,0,1,660.5,72.42Z"/><path class="cls-3" d="M219,170.19c-4.66.08-6.9.11-11.13.15v10.51c-2.19,0-3.25,0-5.3,0V157.7c2.05,0,3.11,0,5.3,0v8.67c4.21,0,6.44-.06,11.09-.14v-8.67l6.22-.14v23.18l-6.18.13Z"/><path class="cls-3" d="M241.66,162.6c4.07-.14,7.29.67,9.54,2.38a7.25,7.25,0,0,1,3,6.1,8,8,0,0,1-3.82,7,16.45,16.45,0,0,1-8.67,2.37c-4.07.14-7.1-.67-9.18-2.4a7.64,7.64,0,0,1-2.7-6.17,8,8,0,0,1,3.51-6.93A15.1,15.1,0,0,1,241.66,162.6Zm0,3.59a5.94,5.94,0,0,0-4.15,1.61,5.21,5.21,0,0,0-1.56,3.91,4.9,4.9,0,0,0,1.74,4,5.89,5.89,0,0,0,4,1.13,6.34,6.34,0,0,0,4.26-1.62,5.14,5.14,0,0,0,1.64-3.92,4.73,4.73,0,0,0-1.86-4A6.08,6.08,0,0,0,241.66,166.19Z"/><path class="cls-3" d="M271.7,161.76v3l-4.69.21v9.54a1.41,1.41,0,0,0,.53,1.28,3.66,3.66,0,0,0,1.94.27,10.93,10.93,0,0,0,3-.72l.25-.11c.32,1.2.49,1.8.81,3a22.62,22.62,0,0,1-6.66,1.3c-4.51.19-6.72-1.05-6.72-3.73V165.21l-3.35.14V162.4l3.35-.13v-2.85l6.87-2.85V162Z"/><path class="cls-3" d="M301.8,170c-7.36.4-11.06.59-18.37.95a4.34,4.34,0,0,0,1,2.89q1.5,1.35,4.69,1.19c2.64-.13,4.42-.92,5.32-2.34l7-.38a9.17,9.17,0,0,1-4.63,4.25,20.94,20.94,0,0,1-8,1.89q-6.24.31-9.56-2.15a7,7,0,0,1-2.9-5.92,8.36,8.36,0,0,1,3.78-7.23,16.5,16.5,0,0,1,8.78-2.57,19,19,0,0,1,7.34.91,8.3,8.3,0,0,1,4.5,3.38,8.18,8.18,0,0,1,1.08,4.31A6.71,6.71,0,0,1,301.8,170Zm-7.39-2.55c-.35-2.49-2.2-3.64-5.53-3.47q-4.69.24-5.35,4Z"/><path class="cls-3" d="M314.09,153.54v23.17l-7.12.41V154Z"/><path class="cls-3" d="M352.6,162.06l5.29-.37V162a9.1,9.1,0,0,1-3.2,6.86c2.48,1.92,3.7,2.88,6.13,4.81l-7.46.53c-1-.8-1.54-1.2-2.58-2a27.37,27.37,0,0,1-4.86,2.35,17.67,17.67,0,0,1-4.48.84c-3.65.24-6.6-.28-8.76-1.57a5.14,5.14,0,0,1-2.82-4.55,5,5,0,0,1,1.71-3.83,21.49,21.49,0,0,1,6-3.3,19,19,0,0,1-3.29-2.62,3,3,0,0,1-.76-2c0-1.64,1-3.07,3-4.21a14.27,14.27,0,0,1,6.24-1.73,11.3,11.3,0,0,1,6.47,1.08,3.6,3.6,0,0,1,2,3.23,4.35,4.35,0,0,1-1.18,3,16.42,16.42,0,0,1-4.38,3c2.23,1.68,3.33,2.53,5.51,4.22a6.18,6.18,0,0,0,1.44-3.66A2.6,2.6,0,0,0,352.6,162.06Zm-11.8,2.48-2.28,1.12c-1.42.81-2.14,1.69-2.14,2.66a3,3,0,0,0,1.62,2.46,5.91,5.91,0,0,0,3.64.89,14.36,14.36,0,0,0,5.72-2.1C344.76,167.56,343.44,166.55,340.8,164.54Zm1.87-4.91c1.93-.84,2.89-1.82,2.89-2.95s-.92-1.78-2.79-1.65-2.76.7-2.76,1.73c0,.58.71,1.4,2.12,2.45Z"/><path class="cls-3" d="M397.79,158v12.63l-3.14.28-.65-3.24a10.73,10.73,0,0,1-8.21,4.37c-4.17.36-7.74-.61-10.44-2.9a9.88,9.88,0,0,1-3.6-7.88,11.67,11.67,0,0,1,4.66-9.42,17.81,17.81,0,0,1,9.82-3.72c3.63-.3,6.42.25,8.5,1.62a6.75,6.75,0,0,1,3.06,5l-5,.45c-1-2.3-3.14-3.31-6.59-3a8.88,8.88,0,0,0-6.2,2.84,8.27,8.27,0,0,0-2,5.63,6.82,6.82,0,0,0,2.71,5.77,8,8,0,0,0,5.66,1.47,8.28,8.28,0,0,0,5.61-2.59,5.23,5.23,0,0,0,1.3-2.93c-2.41.22-3.65.33-6.21.54v-4C391.63,158.61,393.78,158.42,397.79,158Z"/><path class="cls-3" d="M418.91,162c-5.22.18-7.8.3-12.89.64a5.81,5.81,0,0,0,.72,3,3.59,3.59,0,0,0,3.26,1.31,3.84,3.84,0,0,0,3.73-2.29c2-.08,3-.11,5-.15a7.66,7.66,0,0,1-3.27,4.28,10.74,10.74,0,0,1-5.63,1.63c-2.91.1-5.11-.67-6.65-2.34a8.42,8.42,0,0,1-2-6,10.19,10.19,0,0,1,2.61-7.36,9.33,9.33,0,0,1,6.12-2.71,9.1,9.1,0,0,1,5.14.88,6.72,6.72,0,0,1,3.18,3.57,12.68,12.68,0,0,1,.77,4.66C419,161.33,418.94,161.62,418.91,162Zm-5.22-2.89c-.24-2.62-1.54-3.82-3.87-3.63s-3.42,1.56-3.73,4.14C409.11,159.36,410.63,159.26,413.69,159.08Z"/><path class="cls-3" d="M422.52,145.3l5.11-.42v8.17a6.77,6.77,0,0,1,5.42-2.84,6.87,6.87,0,0,1,6.36,2.74,11.83,11.83,0,0,1,2.08,7.27c0,3.41-.9,6.1-2.69,8a7.26,7.26,0,0,1-5.75,2.27,6.52,6.52,0,0,1-5.42-2.6v2.06c-2.05,0-3.08-.05-5.11-.07Zm9.4,9.08a4,4,0,0,0-3.15,1.73,7.27,7.27,0,0,0-1.18,4.36,7,7,0,0,0,1.16,4.25,3.78,3.78,0,0,0,3.17,1.58,3.63,3.63,0,0,0,3.17-1.57,8.84,8.84,0,0,0,0-8.86A3.5,3.5,0,0,0,431.92,154.38Z"/><path class="cls-3" d="M462.49,170.25v1.44l-5.76-.4a3.8,3.8,0,0,1-.61-2.19c-1.41,1.68-3.45,2.35-6.12,2.19a6.81,6.81,0,0,1-4.72-2,5.71,5.71,0,0,1-1.44-4.12,6,6,0,0,1,3-5.66A20.39,20.39,0,0,1,452,158c1.65-.34,2.48-.52,4.14-.88,0-.65,0-1,0-1.6,0-1.49-1.05-2.17-3.06-2.1a4.66,4.66,0,0,0-2.74.71,3.41,3.41,0,0,0-1,2.31l-5,.11c.3-4.82,3.16-7.19,8.61-7.5,3-.16,5.22.24,6.51,1.32s1.81,2.67,1.81,5v12.89A2,2,0,0,0,462.49,170.25Zm-12.41-27.46a2.52,2.52,0,0,1,1.75.46,1.73,1.73,0,0,1,.73,1.46,2.21,2.21,0,0,1-.73,1.61,2.63,2.63,0,0,1-1.75.79,2.29,2.29,0,0,1-1.74-.55,1.91,1.91,0,0,1-.7-1.49,2,2,0,0,1,.7-1.55A2.86,2.86,0,0,1,450.08,142.79Zm6.08,17.82c-1.55.38-2.32.57-3.87.93a5.29,5.29,0,0,0-2.44,1.17,2.58,2.58,0,0,0-.76,1.91c0,1.54.94,2.33,2.82,2.41,2.72.11,4.13-1.43,4.21-4.76C456.13,161.61,456.14,161.27,456.16,160.61Zm-.23-18.27a2.42,2.42,0,0,1,1.74.47,1.79,1.79,0,0,1,.71,1.48,2.27,2.27,0,0,1-.73,1.64,2.63,2.63,0,0,1-1.72.81,2.37,2.37,0,0,1-1.76-.58,1.92,1.92,0,0,1-.73-1.51,2,2,0,0,1,.73-1.57A2.89,2.89,0,0,1,455.93,142.34Z"/><path class="cls-3" d="M484.13,173.28l-5.28-.39v-3.37a6,6,0,0,1-6.12,3.38,6.91,6.91,0,0,1-5.32-2.67,9.43,9.43,0,0,1-1.54-5.74V148.75l5.32-.26c0,5.47,0,8.75,0,14.84,0,2.94,1.12,4.41,3.39,4.53a3.78,3.78,0,0,0,3.1-1.15,5.12,5.12,0,0,0,1.17-3.59v-15l5.28-.26Z"/><path class="cls-3" d="M507.31,138.77v36l-5.26-.3v-2.92a5.36,5.36,0,0,1-5.54,3.08c-2.69-.18-4.85-1.67-6.49-4.61a19.2,19.2,0,0,1-2.12-9.45c0-4.5.9-8,2.7-10.49a7.43,7.43,0,0,1,5.87-3.41,5.45,5.45,0,0,1,5.58,3.28V139.18Zm-9.65,13.35a3.76,3.76,0,0,0-3.22,2.37,15.84,15.84,0,0,0,0,12.19,3.82,3.82,0,0,0,3.24,2.41,3.39,3.39,0,0,0,3.23-2.17,17,17,0,0,0,0-12.6A3.46,3.46,0,0,0,497.66,152.12Z"/><path class="cls-3" d="M529.51,162.49c-5.26.13-7.93.16-13.3.18a16,16,0,0,0,.76,5.18,3.65,3.65,0,0,0,3.42,2.51c1.92,0,3.2-1.13,3.85-3.61,2,0,3,0,5,0a12.68,12.68,0,0,1-3.32,7,7.56,7.56,0,0,1-5.81,2.23,7.94,7.94,0,0,1-7-4.46c-1.43-2.56-2.15-6-2.15-10.38q0-7.95,2.8-12.07a8.08,8.08,0,0,1,6.44-3.74,7,7,0,0,1,5.3,1.69,11,11,0,0,1,3.23,6,35,35,0,0,1,.78,8C529.55,161.39,529.54,161.89,529.51,162.49Zm-5.31-5.26c-.25-4.53-1.58-6.56-4-6.44s-3.59,2.24-3.91,6.66C519.47,157.38,521.05,157.33,524.2,157.23Z"/><path class="cls-3" d="M545.63,158.38v17c-2.11.08-3.17.11-5.31.16V136.08c5.58-.48,8.33-.73,13.72-1.24,2.13-.2,3.73.17,4.8,1.4,1.21,1.39,1.79,3.54,1.79,6.75,0,4.63-1.29,8.47-4.11,10.67a5.9,5.9,0,0,1,2.86,4,113.5,113.5,0,0,1,.53,11.92c0,1.61.36,2.67,1,3.23v1.49c-2.07.21-3.14.37-5.35.55a22.38,22.38,0,0,1-.77-6.94c0-.81,0-1.83,0-3,0-.82,0-1.44,0-1.82,0-3.56-1.06-5.28-3.21-5.1C549.25,158.13,548.05,158.22,545.63,158.38Zm0-7.54c2.55-.21,3.82-.32,6.33-.55a3.5,3.5,0,0,0,2.75-1.35,8.44,8.44,0,0,0,.94-4.46c0-1.87-.32-3.06-.94-3.72a3.24,3.24,0,0,0-2.75-.64l-6.33.61Z"/><path class="cls-3" d="M577.31,159.64c-3.62.1-5.56.19-9.78.46a21.85,21.85,0,0,0,.59,5.55c.56,1.72,1.45,2.5,2.62,2.4,1.45-.11,2.38-1.4,2.85-4,1.47-.09,2.18-.12,3.57-.19a16.54,16.54,0,0,1-2.33,7.22,5.64,5.64,0,0,1-4.26,2.82c-2.29.21-4.16-1-5.49-4-1.17-2.63-1.78-6.43-1.78-11.28,0-5.9.79-10.4,2.3-13.33,1.3-2.52,3-3.66,5-3.67a4.73,4.73,0,0,1,3.9,2.13,14.43,14.43,0,0,1,2.27,6.32,50.54,50.54,0,0,1,.54,8Q577.34,158.74,577.31,159.64Zm-3.75-5.41c-.18-4.67-1.13-6.86-3-6.82s-2.76,2.27-3,7.05C570.09,154.33,571.28,154.29,573.56,154.23Z"/><path class="cls-3" d="M583.1,142.7v29.62l-3.29.24v-30.1C581.16,142.54,581.82,142.59,583.1,142.7Zm-1.65-8.12a1.4,1.4,0,0,1,1.08.81,3.71,3.71,0,0,1,.43,1.88,4.1,4.1,0,0,1-.43,1.95c-.29.53-.65.79-1.08.76s-.8-.36-1.1-.95a4.35,4.35,0,0,1-.47-2,3.15,3.15,0,0,1,.47-1.81A1.15,1.15,0,0,1,581.45,134.58Z"/><path class="cls-3" d="M586.11,143c1.22.14,1.81.21,3,.38v3.79c.79-2.91,1.89-4,3.26-3.82s2.14,1.22,2.73,3.08a22.7,22.7,0,0,1,.78,6.73v18.47l-2.69.11V154.35c0-3.42-.58-5.13-1.8-5.28-.68-.08-1.23.35-1.65,1.34a10.8,10.8,0,0,0-.63,4.11v17.42l-3,.18Z"/><path class="cls-3" d="M600.89,145.61v25.88l-2.57.06V145Zm-1.3-7.62a1.41,1.41,0,0,1,.85.9,4.32,4.32,0,0,1,.34,1.8,3.84,3.84,0,0,1-.34,1.73c-.23.45-.51.65-.85.56s-.62-.41-.86-1a5,5,0,0,1-.36-1.93,3.12,3.12,0,0,1,.36-1.64A.74.74,0,0,1,599.59,138Z"/><path class="cls-3" d="M609.45,147.76l2.41.62V171.2c0,3.37-.47,5.49-1.42,6.72a4.22,4.22,0,0,1-3.25,1.63,3.3,3.3,0,0,1-3.27-1.52,7,7,0,0,1-1-3.81l2.58-.1c.21,1.69.8,2.4,1.79,2.35a1.93,1.93,0,0,0,1.56-1.27,7.94,7.94,0,0,0,.57-3.51v-3.38a10.29,10.29,0,0,1-1.3,2.8,1.79,1.79,0,0,1-1.45.77c-1.25,0-2.23-1.15-3-3.76a34.41,34.41,0,0,1-1-9,30.46,30.46,0,0,1,1.3-10.1c.74-2,1.66-2.73,2.73-2.45s1.93,1.63,2.66,4.21Zm-2.15,4c-.61-.12-1.1.47-1.47,1.84a22.76,22.76,0,0,0-.55,5.65,22.16,22.16,0,0,0,.55,5.52c.37,1.37.86,2,1.47,2.07s1.15-.62,1.56-1.92a17.84,17.84,0,0,0,.59-5.19,20.61,20.61,0,0,0-.68-5.85C608.38,152.59,607.89,151.89,607.3,151.76Z"/><path class="cls-3" d="M623.69,171.5l-2.86,0v-2.88c-.77,2.21-1.84,3.28-3.18,3.28s-2.08-.7-2.67-2.18a15.41,15.41,0,0,1-.76-5.48V149l2.64.65v13.58c0,2.67.57,4,1.73,4a1.74,1.74,0,0,0,1.62-1,6.13,6.13,0,0,0,.62-3V150.54c1.12.24,1.69.36,2.86.59Z"/><path class="cls-3" d="M626.54,151.68c1.23.22,1.86.33,3.16.53v2.66c.87-1.94,2.12-2.71,3.82-2.48a4.77,4.77,0,0,1,3.54,2.27,8.59,8.59,0,0,1,1.06,4.57v12.35h-3.57V159.94c0-2.26-.77-3.45-2.22-3.62a2,2,0,0,0-1.93.8,4.47,4.47,0,0,0-.7,2.7v11.73l-3.16,0Z"/><path class="cls-3" d="M651.9,154.23c1.73.05,2.62.07,4.45.1v17c0,2.65-.92,4.59-2.65,5.71a10.74,10.74,0,0,1-5.77,1.39c-2.45,0-4.2-.52-5.39-1.56a4.24,4.24,0,0,1-1.51-3.17l4.12,0c.34,1.34,1.31,2,3,2a4,4,0,0,0,2.74-1,3.64,3.64,0,0,0,1-2.83v-2.57a8.76,8.76,0,0,1-2.3,2.14,5.09,5.09,0,0,1-2.51.6,5.29,5.29,0,0,1-4.84-2.77,11.92,11.92,0,0,1-1.5-6.27,11.28,11.28,0,0,1,2-7.15,5,5,0,0,1,4.48-2.06,6.13,6.13,0,0,1,4.65,2.9Zm-3.78,3.25a2.63,2.63,0,0,0-2.47,1.42,7.48,7.48,0,0,0-.92,4,7,7,0,0,0,.92,3.84,2.81,2.81,0,0,0,2.47,1.45,3.38,3.38,0,0,0,2.74-1.44,6,6,0,0,0,1-3.73,6.5,6.5,0,0,0-1.21-4.12A3.31,3.31,0,0,0,648.12,157.48Z"/><path class="cls-2" d="M601.92,35.4Q601.92,55,585,63.64a2.47,2.47,0,0,0-1.29,1.63L567.61,53.58a10.44,10.44,0,0,0,2.63-1.45q4.93-3.94,4.92-13.11c0-5.87-1.63-10.07-4.92-12.61-2.79-2.19-7.52-3.27-14.19-3.27h-29.8a2.21,2.21,0,0,0-.57.06L497.55,2.81a2.46,2.46,0,0,1,1.94-.91h67.3q16.56,0,25.29,8.46Q601.93,19.86,601.92,35.4Z"/><path class="cls-2" d="M156.16,87.28C134.43,66.55,109.16,63,91,59.5S56.35,57,47.76,56.7,9.41,62.31,9.41,62.31c2.08,3.09,14.34,7.27,14.34,7.27-8.59.26-22,3.8-22,3.8,3,4.55,26,13.39,26,13.39a45,45,0,0,0-15.67,4c2.52,2,15.41,6.81,15.41,6.81C14.91,100.41,0,108.75,0,108.75,2.78,111,25,111,25,111c-1.77,1-15.92,16.68-14.4,18.2s12.12-.76,12.12-.76c-4.8,6.82-7.83,21.22-7.83,21.22,2.78,2.53,11.37,1.27,11.37,1.27-4.3,3.28-8.85,19.71-8.85,19.71,1.77,1.77,11.88-.5,11.88-.5C22,175,17.69,191.14,20,190.89s18.93-14.22,19.44-14.66c-6.76,9.54-12.1,36.29-12.18,36.7.47-.49,15.55-16.13,35.44-26.09C82.88,176.73,100.57,175.47,114,173s42.21-1.27,42.21-1.27c-4.3-11.62-5-31.7-5.56-46.74S156.16,87.28,156.16,87.28Zm-4.22,8.08-2.27,6.06L128.94,93q-4.84-2-9.84-3.56L90,82.61C115.52,76.29,151.94,95.36,151.94,95.36Zm-3.28,16.17-1.26,7.83c-22-12.38-78.33-8.84-78.33-8.84C120.36,98.64,148.66,111.53,148.66,111.53ZM63.93,153.89c.28-.43,9.55-14.22,38.82-18.32,29.73-4.16,44.39-2.3,44.39-2.3l.84,7.49S100.92,130,63.93,153.89ZM123.22,161a37.74,37.74,0,0,1,26.26-7.08l1.12,5.4Z"/><path class="cls-1" d="M202,144s67.72.27,114.21-3.2S445,130.17,451.1,130.17s44-2.4,62.67,6.94l7.58-4.27s-5.06-4.54,2-6.14S577.19,120,597.91,128s29.31,13.88,29.31,13.88,20.23,9.89,33.1,8.8,17.93-6.41,17.93-6.41,7.15-6.66,8.09-19.43-4.8-23-12.63-22.19-20.47,4.81-18.19,16.81c0,0,2.52,4.34,5.81,5.38,0,0-5.06-7.78-.51-12.31s14.4-7.74,17.69,2.93S671.18,135,671.18,135s-11.37,12-34.61-.27S607.76,119,592.1,115.76s-46.75-.54-46.75-.54l-97,2.41-39.67.53s-16.17-.53-14.91-2.67,9.6-5.87,9.6-5.87l-10.86-7s-17.94,15.52-56.86,17.65c0,0-26.44,1.16-37.39,1.34s-40.43-.18-42.37-.27-21.22-.8-22.9-.89-23.33-1.78-23.84-1.78-9.1-1.15-9.1-1.15S196.24,129.28,202,144Z"/><path class="cls-2" d="M159.35,87.87s17.35,0,24.77,15.16c0,0,5.89,0,10.44,11.29l1.68,6.06a43.84,43.84,0,0,0,1.69,24.77s-2,7.92-5.9,11.62-7.24,5.39-9.77,5.39c0,0-5.72,6.74-10.78,8.76a78.51,78.51,0,0,1-12.13,3.37s-5.82-27.74-5.82-43.21C153.53,113.19,155.31,100.17,159.35,87.87Z"/></g></g></svg>